<svg id="Слой_1" data-name="Слой 1" xmlns="http://www.w3.org/2000/svg" viewBox="0 0 95.98 95.98"><defs><style>.cls-1{fill:#f93;}</style></defs><title>logo_sharpay_4</title><path class="cls-1" d="M1125,112.9A48,48,0,0,0,1088,191.53L1077,208.88h48a48,48,0,1,0,0-96Zm13.91,67.7a28.91,28.91,0,0,1-11,3.83l-2.19,9.48h-14.37l2.15-9.33c-1.52-.18-3-.37-4.52-.67a34.89,34.89,0,0,1-8.36-2.55l-.41-.21,2.95-12.65h2l.17.14a24.19,24.19,0,0,0,2.15,1.63,20.08,20.08,0,0,0,3.68,1.84,29.19,29.19,0,0,0,4.8,1.54,26,26,0,0,0,5.87.64c3.1,0,5.48-.27,7-1.06a4.6,4.6,0,0,0,2.47-3.28l3.09-13.38a25.39,25.39,0,0,1,7.73,3.51,9.76,9.76,0,0,1,4,8.25C1146,173.5,1143.57,177.63,1138.86,180.6Zm8.08-28.19H1145l-.15-.12a23.31,23.31,0,0,0-6.65-3.46,24.63,24.63,0,0,0-8-1.34,17.35,17.35,0,0,0-6.77,1,4,4,0,0,0-2.19,2.59c-.26.72-.32,1.06-.55,1.9l-2.87,12.43c-3.73-1.16-6.41-2.47-8.11-4a10.11,10.11,0,0,1-3.56-7.86c0-5.22,2.36-9.38,7-12.38a28.17,28.17,0,0,1,11.14-3.9l2.19-9.45h14.37l-2.18,9.45c1,.15,2.11.27,3.16.48a33.3,33.3,0,0,1,7.49,2.21l.42.21Z" transform="translate(-1076.96 -112.9)"/></svg>